<svg width="51" height="17" fill="none" xmlns="http://www.w3.org/2000/svg"><g clip-path="url(#clip0_58_345)"><path d="M47.796 8.276c1.607-.585 2.411-1.91 2.411-3.975 0-1.49-.421-2.58-1.265-3.269C48.1.344 46.694.005 44.726.017H39.97v12.905h2.817V8.775h1.956l2.8 4.13h3.474l-3.221-4.629zm-.995-2.46c-.349.32-1.007.481-1.974.481H42.77v-3.82h2.108c.9 0 1.535.127 1.906.379.354.258.54.74.54 1.428s-.17 1.205-.507 1.531h-.016z" fill="url(#paint0_linear_58_345)"/><path d="M19.783 7.09L16.528 0h-3.812v12.905h2.817V4.783l3.406 7.038h1.687l3.407-7.038v8.122h2.833V0h-3.811l-3.272 7.09z" fill="url(#paint1_linear_58_345)"/><path d="M8.854 8.466L3.424 0H0l8.264 12.905h3.424V.017H8.854v8.449z" fill="url(#paint2_linear_58_345)"/><path d="M38.587 6.4h-2.749l-1.265 1.825h1.62v1.6c-.63.367-1.417.55-2.362.55a3.248 3.248 0 01-1.321-.267 3.305 3.305 0 01-1.107-.782c-.697-.711-1.046-1.658-1.046-2.84 0-1.18.354-2.127 1.063-2.838a3.57 3.57 0 011.215-.814c.455-.184.943-.27 1.432-.253a3.986 3.986 0 011.484.275 5.389 5.389 0 011.518 1.015l1.434-2.082A6.57 6.57 0 0033.899 0a6.098 6.098 0 00-2.428.465 6.23 6.23 0 00-2.058 1.394c-1.237 1.239-1.855 2.782-1.855 4.629 0 1.847.595 3.378 1.787 4.594 1.237 1.216 2.755 1.824 4.554 1.824 2.136 0 3.817-.688 5.042-2.065V6.4h-.354z" fill="url(#paint3_linear_58_345)"/><path d="M18.147 15.692l-.337 1.256h-.439l-.455-1.686h.337l.337 1.256h.017l.337-1.256h.405l.337 1.256.338-1.256h.37l-.471 1.686h-.439l-.337-1.256zm2.091-.43h1.316v.275h-.979v.43h.675v.276h-.675v.447h1.012v.275h-1.349v-1.703zm2.192 0h.726c.438 0 .624.19.624.447a.349.349 0 01-.074.222.336.336 0 01-.196.122s.388.07.388.413c0 .258-.22.482-.658.482h-.81v-1.686zm1.012.482c0-.104-.1-.207-.286-.207h-.405v.413h.405c.185 0 .286-.103.286-.206zm-.691.481v.448h.506c.202 0 .287-.103.287-.224 0-.12-.085-.224-.304-.224h-.489zm3.913-.963c.54 0 .893.344.893.843s-.354.843-.893.843h-.641v-1.686h.64zm-.304.275v1.136h.304a.55.55 0 00.393-.167.574.574 0 000-.803.55.55 0 00-.393-.166h-.304zm2.075-.275h1.315v.275h-.995v.43h.675v.276h-.675v.447h1.012v.275h-1.35l.017-1.703zm2.023 0h.355l.489 1.325.506-1.325h.354l-.641 1.686h-.422l-.64-1.686zm2.513 0h1.316v.275h-.995v.43h.674v.276h-.674v.447h1.011v.275h-1.349l.017-1.703zm2.176 0h.337v1.41h.944v.276h-1.264l-.017-1.686zm2.833-.052c.174 0 .343.053.487.151a.891.891 0 01.323.401.913.913 0 01-.19.976.861.861 0 01-.956.194.882.882 0 01-.393-.33.908.908 0 01-.148-.497.876.876 0 01.246-.644.84.84 0 01.631-.25zm0 .293a.581.581 0 00-.336.084.613.613 0 00-.127.93.588.588 0 00.647.147.593.593 0 00.27-.221.611.611 0 00.103-.338.56.56 0 00-.145-.43.54.54 0 00-.412-.172zm2.53-.241c.455 0 .708.258.708.568 0 .31-.253.585-.708.585h-.422v.533h-.337v-1.686h.759zm-.422.275v.602h.422a.298.298 0 00.259-.058.309.309 0 00.116-.243.316.316 0 00-.116-.243.302.302 0 00-.26-.058h-.42zm2.817 1.17l-.405-.912-.135 1.153h-.337l.202-1.686h.354l.472 1.032h.017l.473-1.032h.37l.203 1.686h-.337l-.135-1.153-.422.912h-.32zm2.108-1.445h1.315v.275h-.995v.43h.675v.276h-.675v.447h1.012v.275h-1.349l.017-1.703zm3.373 1.153v-1.153h.337v1.686h-.354l-.826-1.153v1.153h-.338v-1.686h.355l.809 1.153h.017zM51 15.262v.275h-.573v1.411h-.338v-1.41h-.556v-.276H51z" fill="#fff"/></g><defs><linearGradient id="paint0_linear_58_345" x1="5.751" y1="6.796" x2="64.104" y2="6.3" gradientUnits="userSpaceOnUse"><stop stop-color="#662D91"/><stop offset="1" stop-color="#EE2A7B"/></linearGradient><linearGradient id="paint1_linear_58_345" x1="5.751" y1="6.797" x2="64.104" y2="6.301" gradientUnits="userSpaceOnUse"><stop stop-color="#662D91"/><stop offset="1" stop-color="#EE2A7B"/></linearGradient><linearGradient id="paint2_linear_58_345" x1="5.751" y1="6.797" x2="64.104" y2="6.301" gradientUnits="userSpaceOnUse"><stop stop-color="#662D91"/><stop offset="1" stop-color="#EE2A7B"/></linearGradient><linearGradient id="paint3_linear_58_345" x1="5.751" y1="6.796" x2="64.104" y2="6.301" gradientUnits="userSpaceOnUse"><stop stop-color="#662D91"/><stop offset="1" stop-color="#EE2A7B"/></linearGradient><clipPath id="clip0_58_345"><path fill="#fff" d="M0 0h51v17H0z"/></clipPath></defs></svg>